<svg xmlns="http://www.w3.org/2000/svg" viewBox="0 0 517.99 902.85">
  <defs>
    <style>
      .a7205991-dbe7-4234-9dc3-979fb37043eb {
        fill: #729e3f;
      }

      .a0852da7-2a63-45d8-ae17-0cff799c158a, .a719c949-7a97-4fae-8e59-11fafa9f3182, .a7205991-dbe7-4234-9dc3-979fb37043eb, .aaaadcd6-3631-4131-97c4-93476d53038b, .b62cc61f-d2c4-4283-9455-1d6a319a22fc, .ba245332-10b6-4d86-829e-fcd039dce8cc, .bccd1ee3-3775-4eb4-bd6d-5822f5c522bd, .e911d1aa-8d36-4b7e-b8bb-0a558f4d949a, .f2606e50-7f21-4f77-ab73-0097922cecac {
        fill-rule: evenodd;
      }

      .a719c949-7a97-4fae-8e59-11fafa9f3182 {
        fill: #fdc88e;
      }

      .e911d1aa-8d36-4b7e-b8bb-0a558f4d949a {
        fill: #faa21e;
      }

      .b62cc61f-d2c4-4283-9455-1d6a319a22fc {
        fill: #af4025;
      }

      .aaaadcd6-3631-4131-97c4-93476d53038b {
        fill: #764d2a;
      }

      .ba245332-10b6-4d86-829e-fcd039dce8cc {
        fill: #bb7043;
      }

      .a0852da7-2a63-45d8-ae17-0cff799c158a {
        fill: #d42e2e;
      }

      .bccd1ee3-3775-4eb4-bd6d-5822f5c522bd {
        fill: #a28c7c;
      }

      .f2606e50-7f21-4f77-ab73-0097922cecac {
        fill: #4e2c13;
      }
    </style>
  </defs>
  <title>cloudAsset 3</title>
  <g id="a08bfb0e-35bf-4776-9e47-d50cfca09855" data-name="Layer 2">
    <g id="b5948505-b512-46a1-8a1e-20ad9e6eed6c" data-name="Layer 1">
      <g>
        <path class="a7205991-dbe7-4234-9dc3-979fb37043eb" d="M338.83,887.91q18.89-.27,37.76-.66c15.87-.31,31.1-1.08,46.86-1.82,6.24-.3,11.82-1.17,17.84-1.87a75.83,75.83,0,0,0,11-2.54,44.94,44.94,0,0,0,8.55-3.73c4.93-2.94,7.63-5.71,9.69-9.73a16.33,16.33,0,0,0,1.26-11c-1.16-4.31-3.23-7.45-7.29-11.08a46.87,46.87,0,0,0-8.67-5.63c4.75-10.75-9.24-22.47-41.33-25.23-29.53-1.35-294.23-16.69-303.22,7.27a86.82,86.82,0,0,0-14.94,3.82c-7.82,3-12.49,6.23-16.37,11.36a15.4,15.4,0,0,0-3,9.86,16.7,16.7,0,0,0,3.21,8.73,30.4,30.4,0,0,0,4.34,4.8,42,42,0,0,0-12,5.71A20.66,20.66,0,0,0,66.26,873a12.42,12.42,0,0,0-1.21,9.33,16.71,16.71,0,0,0,4.72,7.63,29.93,29.93,0,0,0,6.11,4.53A57,57,0,0,0,86.61,899c12.32,3.48,22.3,3.69,35.53,3.81.23,0,2.36,0,2.77,0,12.77-.1,25.4-.65,38.12-1.18,32.17-1.33,64.06-4.28,96-6.42,1.5-.1,9-.58,18.26-1.2,3.17,1.49,8.74,1.49,12.4,1.31,12.27-.61,26.71-1.54,38.6-3.29a46.26,46.26,0,0,0,6.52-2A19.27,19.27,0,0,0,338.83,887.91Z"/>
        <g>
          <path class="a719c949-7a97-4fae-8e59-11fafa9f3182" d="M510.83,437.26a2.38,2.38,0,0,1,.25-1.41,6.78,6.78,0,0,0,1.47-2.22,1.8,1.8,0,0,1,.16-1.27c1.07-1.09.81-2.71,1.6-3.92a2,2,0,0,1,.17-1.37c1.42-4,1.42-8.48,3.51-12.33V402.41a11.36,11.36,0,0,1-3.36-6.94c-2.35-13.57-8.53-25.23-17.11-35.93-7.54-9.39-16.42-17.43-24.81-26-1.6-1.64-3.18-3.53-5.83-3.53a9.31,9.31,0,0,0-8.14-.29,57.17,57.17,0,0,1-15.53,9.8c-12.62,5.06-19.88,15.15-24.81,27.05-2.9,7-5.47,14.13-8.57,21.05,1.18,4.54,5.11,6.94,8,10.08,4.68,5,5.3,9.88.9,15.52-7.9,10.15-16.6,19.44-27,27.08-1.88,6.61-2.24,13.78-7.68,19-1.26,1.22-1.72,3.73-.47,4.91,7.38,6.93,7.14,18.83,16.21,24.58,15.19,7.4,30.84,8.57,46.9,3.35,5.09-1.65,10.15-2.89,15.48-1.15,2.64-.11,1.45-3.05,2.95-4l0,0c.87-1.13,2.58-.75,3.44-1.91l-.08.08c.68-.49,1.23-1.14,1.9-1.63l.07-.06a5.07,5.07,0,0,1,1.57-1.42,2.66,2.66,0,0,1,1.46-.49,5.26,5.26,0,0,0,2.12-1.77l-.08.08a8.87,8.87,0,0,0,1.85-1.82l-.07.06a18,18,0,0,0,1.86-1.74v0c.59-.59,1.18-1.18,1.79-1.76h0c.58-.6,1.17-1.19,1.77-1.76h0c.56-.6,1.15-1.19,1.76-1.77h0c.58-.6,1.17-1.19,1.77-1.76h0c.57-.6,1.15-1.19,1.76-1.76h0c.57-.6,1.16-1.19,1.76-1.76h0c.58-.6,1.16-1.19,1.77-1.76h0c.57-.61,1.16-1.19,1.75-1.81l0,0a14.65,14.65,0,0,0,1.75-1.86l-.07.07a8.86,8.86,0,0,0,1.83-1.84l-.08.07a6.71,6.71,0,0,0,1.81-1.87l-.1.09c1.23-.74.77-2.54,2-3.25l.12-.17a10,10,0,0,1,1.56-1.81h0a7.11,7.11,0,0,0,1.65-2.17,2.44,2.44,0,0,1,.43-1.44,9.8,9.8,0,0,1,1.45-1.7v0a6,6,0,0,0,1.63-2.26,1.9,1.9,0,0,1,.25-1.3,7.49,7.49,0,0,0,1.54-2.12,2.38,2.38,0,0,1,.27-1.41A8.71,8.71,0,0,0,510.83,437.26Z"/>
          <path class="e911d1aa-8d36-4b7e-b8bb-0a558f4d949a" d="M400.25,487.37c-3.28-3-5.93-6.64-6.83-10.83-.85-4-2.93-6.8-5.71-9.41-.84-.79-1.61-1.67-2.39-2.53-1.16-1.26-1-2.58-.07-3.91a3.21,3.21,0,0,1,.57-.65c6.13-4.78,7.67-11.18,6.6-18.52,0-.2.32-.46.5-.7,2.91-3.14,2.32-7.09,2.37-10.83.14-10.52-.1-21.05.12-31.57.12-6.18,1.84-10.54,9.48-8.13,2.35.74,4.68.5,6-2.17a30.45,30.45,0,0,0,6.67-12.95c1.88-7.1,5.37-13.44,9.28-19.62a33.33,33.33,0,0,1,13.34-12.14,83.49,83.49,0,0,1,7.81-3.89,25.11,25.11,0,0,0,12.19-9.46c-1.86-8.78-8.73-12.72-16-15.95-12.9-5.76-26.46-9.67-40.05-13.37-7.05-1.92-10.78-5.31-11.25-13.3-.59-10-.56-21-11.65-26.76-6.44-2.15-11.61.05-17.23,3.56-35,21.86-72.72,36.54-113.72,42.67-8.82,1.32-17.13,4.1-26.19.46-17.5-7-35.12-13.62-47.63-28.78-3.86-4.67-8.22-8.37-14.58-8.92-4.13-.35-6.64-3.53-9.71-5.73-3.41-2.65-7.47-2.21-11.41-2.45l-1.69-.34c-1.2-.71-2.68-.64-3.89-1.35a1.14,1.14,0,0,1-1.33-.29c-2.91-3.47-6.7-4.62-11.09-4.24-3-.19-5.56,0-7.71,2.8Q89.17,291.46,89.68,333.6c.06,3.81.08,7.68,3.56,10.32A31.11,31.11,0,0,1,96.81,346h0c.61.57,1.2,1.15,1.76,1.76h0c.61.56,1.19,1.14,1.76,1.75h0c.62.57,1.19,1.18,1.84,1.72l-.06-.05c1,1.13,2.63.79,3.64,1.8l1.69.34c1.1.7,2.59.46,3.6,1.42l1.69.34c1.19.67,2.66.58,3.82,1.34l.75-.08.68.33c1.26.87,2.8.88,4.18,1.42l2.9.48c1.66,1.11,3.88,0,5.48,1.42l3.32.36c1.54.75,2.8,1.64,1.91,3.67-.1,1-.19,2.09-.28,3.13-1.85,3.54.24,7.61-1.49,11.17-.08,1-.15,1.95-.23,2.92-2.07,4.08.39,8.71-1.57,12.8-.06,1-.13,2-.2,3.06-2.09,4.74.4,9.95-1.53,14.7a7.49,7.49,0,0,1-.27,4.7c-2.08,5.94.5,12.27-1.49,18.22a13.37,13.37,0,0,1-.23,6.44c-1.81,14.1-.27,28.26-.84,42.38-.22,5.47.83,11-.69,16.38v.4a4.81,4.81,0,0,0,1.56,2.52h0a24.22,24.22,0,0,1,1.75,1.76h0c.85,1.19,1.13,2.7,2.08,3.84,9.14,5.75,18.23,11.49,29,14,24.28,5.69,48.61,11,73.29,14.57,22.86,3.33,45.65,2,68.35-1,12.2-1.59,24.34-4.81,36.5-5.34s22.84-4.7,34-8.12c6.93-2.12,13.75-5.09,21.44-3.62,3.09.59,5.39-1.85,7.42-4C406.78,505.08,405.78,492.39,400.25,487.37Z"/>
          <path class="b62cc61f-d2c4-4283-9455-1d6a319a22fc" d="M401.89,512.48c-1.35,1.13-2.77,2.18-4,3.4-1.52,1.51-2.59,1.79-4.12-.18-.91-1.19-2.75-.68-4.15-.29-9.89,2.71-19.76,5.53-29.68,8.15-2.13.57-2.46,1.93-3.06,3.67-.78,2.28-2.33,2.66-3.78.63s-3.23-2.27-5.29-1.88c-6.92,1.26-13.82,2.58-20.74,3.89-26,4.92-52.24,7.37-78.76,6.12-10.59-.5-21-2.22-31.39-4.06-15.87-2.81-31.56-6.6-47.37-9.75-5.38-1.08-10.34-4.24-16.16-3.37a2.73,2.73,0,0,1-2.06-1.28c-2.54-4.12-7-5.46-11-6.64-3.26-.95-5.67-2.78-8.28-4.53-.59-.59-1.14-.59-1.63.11v0a9.84,9.84,0,0,0-1.79,1.8l.06-.07a5.6,5.6,0,0,0-1.75,2.14v30.9a5.49,5.49,0,0,0,1.75,2.13l-.06-.06a11.54,11.54,0,0,0,1.79,1.84l0,0a1.26,1.26,0,0,1,.4,1.27c-.14.43-.27.64-.41.64l0,0a12.52,12.52,0,0,0-1.79,1.85l0-.07a5.66,5.66,0,0,0-1.74,2.14q0,40.25-.06,80.49c1.85,8,.34,16.15.87,24.21.21,3.14-.76,6.39.78,9.42q.06,3.45.11,6.91c2.3,6.36-.54,13.14,1.63,19.51.07,2.27.12,4.53.18,6.8,2.24,5.81-.65,12.09,1.64,17.9,0,1.11.06,2.22.1,3.33,2.18,4-.52,8.57,1.66,12.53.05,1.08.09,2.16.13,3.25,1.9,2.78-.35,6.33,1.65,9.09a2.91,2.91,0,0,1,.1,1.52c1.72,2.16-.1,5.1,1.59,7.27.06,1.08.13,2.16.2,3.24,1.68,2.2-.18,5.2,1.63,7.36a2.81,2.81,0,0,1,.11,1.52c1.74,2.15-.18,5.15,1.66,7.3A2.77,2.77,0,0,1,141,774c1.73,2.16-.14,5.12,1.62,7.28a2.93,2.93,0,0,1,.11,1.58c1.83,2.11-.21,5.17,1.78,7.23l-.05-.07c.53.67,1.15,1.24,1.73,1.85h0c.6.58,1.19,1.16,1.75,1.76h0c.9,1.06,1,2.52,1.83,3.62a13,13,0,0,0,8.92,4.86c16.68,2.52,33,.4,49-4.17a10.8,10.8,0,0,0,5.41-4.23c.8-1.13.88-2.58,1.71-3.7l0,.05a9,9,0,0,0,1.82-1.82l-.07.08c1.73-1.43.29-3.93,1.82-5.43a3.22,3.22,0,0,1,.09-1.6c2.16-4-.49-8.6,1.64-12.58l.15-3.3c2.13-3.94-.56-8.53,1.65-12.47,0-1.14.09-2.27.13-3.4,2.05-4-.49-8.59,1.58-12.59.06-1.68.1-3.34.16-5,2.1-4-.48-8.6,1.6-12.61.05-1.67.11-3.34.16-5,2.22-5.17-.63-10.87,1.64-16,0-1.12.1-2.24.15-3.35,1.87-2.79-.3-6.28,1.57-9.07,0-1.08.09-2.16.14-3.25,2-2.78-.24-6.31,1.61-9.11.09-1.09.15-2.17.23-3.25,1.65-2.18-.14-5.1,1.57-7.26.05-1.11.11-2.21.17-3.31,2-3.36-.46-7.39,1.61-10.74l.12-3.34c2.13-4-.52-8.57,1.64-12.53a3.22,3.22,0,0,1,.09-1.57c1.84-2.08-.17-5.08,1.71-7.16a3.68,3.68,0,0,1,.16-1.68c.92-1.12.72-2.67,1.5-3.85a2.28,2.28,0,0,1,.13-1.39c1.09-1.09.84-2.72,1.61-3.94a2.25,2.25,0,0,1,.15-1.35c1.58-1.5.2-3.94,1.71-5.47a3.37,3.37,0,0,1,.22-1.63c.89-1,.55-2.57,1.59-3.5l0,0c1.05-1,.78-2.6,1.73-3.61l0,.06a11.6,11.6,0,0,0,1.82-1.82l0,0a4.78,4.78,0,0,1,5.56,0l.67-.09.67.07a15.15,15.15,0,0,1,10.85.07h0c1,.95.69,2.53,1.63,3.53a3.07,3.07,0,0,1,.18,1.59c1.48,1.55.15,3.94,1.66,5.48a3,3,0,0,1,.15,1.49c.84,1.1.61,2.66,1.48,3.75a3.74,3.74,0,0,1,.21,1.69c1.54,1.49.2,3.86,1.63,5.39a3.29,3.29,0,0,1,.17,1.59c1.46,1.54.13,4,1.72,5.48l0,0c1.61,1.43.18,3.85,1.71,5.31a2.41,2.41,0,0,1,.16,1.45c.8,1.14.59,2.69,1.48,3.8a3.56,3.56,0,0,1,.21,1.65c1.52,1.51.13,4,1.71,5.45a2.4,2.4,0,0,1,.14,1.4c.79,1.18.55,2.76,1.54,3.87a3,3,0,0,1,.17,1.54c.88,1.07.62,2.63,1.51,3.71a3.52,3.52,0,0,1,.22,1.64c1.5,1.53.15,4,1.74,5.46l0,0c1.62,1.43.16,3.88,1.74,5.32a2.4,2.4,0,0,1,.15,1.4c.8,1.18.54,2.8,1.59,3.88a2.38,2.38,0,0,1,.16,1.42c.82,1.18.55,2.79,1.6,3.87a2.36,2.36,0,0,1,.17,1.41c.81,1.18.55,2.8,1.59,3.87a2.37,2.37,0,0,1,.17,1.41c.81,1.18.54,2.8,1.6,3.88a2.27,2.27,0,0,1,.17,1.38c.78,1.21.57,2.83,1.65,3.91l0,0c1.61,1.43.18,3.89,1.79,5.32l0,0c1.62,1.44.16,3.87,1.72,5.33a2.36,2.36,0,0,1,.16,1.41c.8,1.17.55,2.76,1.55,3.86a3.09,3.09,0,0,1,.18,1.51c.86,1.1.6,2.65,1.5,3.74a3.54,3.54,0,0,1,.22,1.64c1.5,1.52.14,4,1.74,5.46l0,0c1.6,1.44.17,3.88,1.77,5.33l0,0c1.62,1.43.2,3.84,1.7,5.3a2.81,2.81,0,0,1,.17,1.49c.85,1.13.58,2.7,1.54,3.78a3.21,3.21,0,0,1,.18,1.59c.92,1.06.64,2.61,1.52,3.68a3.4,3.4,0,0,1,.23,1.64c.95,1,.65,2.58,1.53,3.65a3.72,3.72,0,0,1,.22,1.68c1.54,1.5.15,3.94,1.74,5.42v0c1.6,1.43.21,3.8,1.65,5.29a3.22,3.22,0,0,1,.16,1.6c1.47,1.54.19,3.89,1.6,5.45a3.53,3.53,0,0,1,.15,1.65c1.84,2.09-.13,5.07,1.66,7.18a3.06,3.06,0,0,1,.13,1.56c1.43,1.56.2,3.87,1.54,5.45a3.74,3.74,0,0,1,.18,1.69c1.88,2.08-.15,5.09,1.72,7.17a2.74,2.74,0,0,1,.1,1.5c1.4,1.59.15,4,1.61,5.53a2.55,2.55,0,0,1,.16,1.39,5.71,5.71,0,0,0,1.75,2.11l0-.06a10.63,10.63,0,0,0,1.79,1.82v0c.81,1.05.87,2.43,1.63,3.49,2.18,2.47,4.37,4.61,8.24,3.59,15.53-4.11,31.64-6.43,45.88-14.6,4.18-2.39,10.15-1.36,12.82-6.67a18,18,0,0,1,1.83-3.37v0c1.53-1.57.29-4,1.67-5.57l.21-12.09c2.2-7.57-.75-15.5,1.59-23.07.06-2.3.11-4.59.16-6.89,2.12-7-.61-14.38,1.56-21.4q.07-4.27.14-8.53c1.86-8.61.28-17.34.85-26,.21-3.15-.81-6.4.82-9.42q.09-11.39.15-22.77a118.65,118.65,0,0,0,0-29.89,49.16,49.16,0,0,1,.11-12.36,12,12,0,0,0,1.63-2.82c2.33-11.69-2-23.12-1.24-34.84a400.17,400.17,0,0,0,.1-41.13C407.43,523.7,408.2,516.78,401.89,512.48Z"/>
          <path class="e911d1aa-8d36-4b7e-b8bb-0a558f4d949a" d="M72.65,130.82l4.86.46c2.36,1.21,5.16-.11,7.47,1.31,2.22.15,4.42.31,6.63.45,2.88,1.41,6.24-.39,9.07,1.37l6.79.4c2.94,1.35,6.32-.29,9.23,1.31a14.41,14.41,0,0,1,6.62.39c3,1.44,6.4-.19,9.37,1.35a14.26,14.26,0,0,1,6.49.41c3.52,1.59,7.5-.38,11,1.38a33.9,33.9,0,0,1,10.15.45c4.71,1.6,9.76-.61,14.43,1.33a22,22,0,0,1,8.4.11,11.8,11.8,0,0,0,2.86,1.83c10.7,1.89,21.56,1.3,32.35,2.32,39.15,3.67,78.29.78,117.45-1,14.87-.67,29.73-.83,44.51-2.82,18.47-.19,36.84-2.07,55.16-4.13a187.57,187.57,0,0,0,40.93-9.7c9-3.15,15.3-9.51,21.4-16.27.87-1,.59-2.15-.25-3.15-5.21-6.2-11-10.7-19.74-11.55-14-1.36-27.79-4.17-41.72-5.92-16.55-2.09-33.17-3.61-49.73-5.63-3.38-.41-6.25,1.16-9.43,1.25a7.41,7.41,0,0,0-.81,4.24c.26,12.26-2.6,15.9-14.59,18.75a62.16,62.16,0,0,1-13.12,1.2c-3.24.07-6.44.29-9.27,2.24-12.76,8.8-26.31,8.53-40.12,3-4.83-1.93-9.77-1.9-14.74-1.78-26.79.68-53.42-.37-79.53-7.25-7.66-2-15.36-3.93-22.22-8.17-5.6-3.47-7.12-7.78-4.11-14.14s7.33-7.9,13.47-5.12c21.2,9.59,44.38,10.47,66.62,15.49,33.66,7.59,65.76-1.83,98.4-6,1.16-.15,2.57-.24,3.36-1,5.28-5,10.95-4.17,16.82-1.4.25-1.38,1.49-3.21-.05-4-3.23-1.76-3.26-4.46-3.16-7.47a21.82,21.82,0,0,0-3.1-11.75c-7.44-13-15.31-25.73-26.36-36.13Q340.6,24,337,20.11C324.36,6.68,308.23,1.45,290.44.17c-11.58-.84-22.74,1.59-33.83,4.59-4.23,1.15-8.32,2.91-12.79,3.08A6.5,6.5,0,0,0,241.4,9a1.85,1.85,0,0,1-1.65.44c-1.06.94-2.68.67-3.72,1.67h0c-.92,1.09-2.54.77-3.51,1.76h0c-.92,1.1-2.54.77-3.51,1.77h0c-.9,1.1-2.62.72-3.46,1.94l.12-.1a17.06,17.06,0,0,1-1.86,1.33,1.27,1.27,0,0,1-1.31.52,6.41,6.41,0,0,0-2.3,1.55l0,0c-.85,1.15-2.62.74-3.39,2l.13-.13a22.75,22.75,0,0,0-2,1.55l-.1.05c-.74,1.23-2.66.75-3.22,2.23l.18-.2a3.68,3.68,0,0,0-2,1.77l.13-.12a9.58,9.58,0,0,0-2,1.67h0A8,8,0,0,1,206,30.3l-.2.16A3.1,3.1,0,0,1,204.24,32l-.25.22c-.54,1.37-2.55.83-3,2.29l.18-.2a2.85,2.85,0,0,0-1.93,1.93l.17-.17A2.85,2.85,0,0,0,197.47,38l.17-.18a2.86,2.86,0,0,0-1.94,1.94l.18-.18a2.9,2.9,0,0,0-1.94,1.94l.17-.17a2.84,2.84,0,0,0-1.93,1.93l.17-.17A2.93,2.93,0,0,0,190.41,45l.17-.17a2.85,2.85,0,0,0-1.92,1.94l.17-.18a2.81,2.81,0,0,0-1.92,1.95l.21-.18c-1.51.5-1,2.46-2.28,3.13l-.1.14a13.9,13.9,0,0,1-1.55,1.89l.05-.05a5.92,5.92,0,0,0-1.69,2l.18-.17c-1.4.74-1,2.51-2,3.48l0-.05a4,4,0,0,0-1.64,2.48.89.89,0,0,1-.5,1.08c-.46.64-.9,1.28-1.35,1.93l.13-.15c-1.31.82-1,2.54-2,3.54l0-.07c-1.12.94-.82,2.59-1.8,3.59l0-.06C171,72.56,172.38,75,171,76.53l.06-.11a3.9,3.9,0,0,0-1.77,2.32,1,1,0,0,1-.38,1.18c-.5.63-1,1.28-1.46,1.94l.08-.08c-1.58,1.3-3.75.29-5.4,1.34a16,16,0,0,1-6.7.43c-3.48,1.8-7.41-.17-10.92,1.35-3.39.46-6.79,1-10.23.41-4.07,1.89-8.58-.25-12.68,1.36l-6.77.38c-2.82,1.78-6.24-.13-9.1,1.44l-3.28.31c-2.2,1.65-5.08,0-7.3,1.49a1.73,1.73,0,0,1-1.63.23C91.93,92,89.7,90.83,88.07,92l-3,.44c-1.27.61-2.72.63-4,1.26l-3,.53c-1.33.55-2.85.56-4.11,1.36a1.57,1.57,0,0,1-1.51.29c-1.12.84-2.63.66-3.77,1.42a1.56,1.56,0,0,1-1.49.36c-1.14.83-2.72.6-3.82,1.52a.89.89,0,0,1-1.13.32,6.17,6.17,0,0,0-2.36,1.28,1.27,1.27,0,0,1-1.31.45,8,8,0,0,0-2.22,1.31,1.23,1.23,0,0,1-1.29.44,5.23,5.23,0,0,0-2.28,1.66l0,0c-.63.56-1.2,1.16-1.82,1.73h0c-.55.61-1.14,1.19-1.75,1.75h0c-.57.61-1.15,1.2-1.76,1.75h0c-.56.61-1.14,1.2-1.76,1.76h0c-.56.6-1.14,1.19-1.75,1.75h0a5,5,0,0,0-1.57,2.46l0,.3a2.92,2.92,0,0,0,1.91,2.36l-.16-.2a2.9,2.9,0,0,0,1.94,1.94l-.18-.18A2.87,2.87,0,0,0,47.85,122l-.18-.17a2.88,2.88,0,0,0,1.94,1.94l-.17-.18a2.83,2.83,0,0,0,1.93,1.94l-.21-.2c.77,1.57,2.59,1.18,3.75,2l.75-.07.67.34c1.61,1.3,3.85.21,5.49,1.43l0-.14c1.09,1.69,2.74,2.09,4.6,2C68.46,130.31,70.54,129.59,72.65,130.82Z"/>
          <path class="a719c949-7a97-4fae-8e59-11fafa9f3182" d="M380.34,141.91l-12.27-.29c-18.44-.4-36.82,1.07-55.22,1.55-7.9.21-15.81.09-23.72.2-4.09.06-8.16.78-12.19,1-12.5.73-25.09,2.13-37.57-.73a13.62,13.62,0,0,0-3.47-.42c-17,.5-33.83-2.56-50.82-1.71a6.53,6.53,0,0,0-1.84,1.9l.06-.05a8.24,8.24,0,0,0-1.84,1.84l.08-.1c-1.74,1.41-.31,3.89-1.8,5.38l.07-.07c-1.78,2.31-2.13,4.6,0,6.89l-.11,0a7.28,7.28,0,0,0,1.81,1.86l-.07-.07a8.87,8.87,0,0,0,1.83,1.84l-.07-.08a10.56,10.56,0,0,0,1.8,1.86l0-.06c.83,1.12,1,2.59,1.86,3.68,2.7,3.22,6.44,3.69,10.31,4,9.72.84,18.28,4.14,24.3,12.28,3.65,4.95,7.7,5.11,11.75.94,8.67-8.91,20.13-9,31.1-9.44,12.05-.48,16.62,4.8,17.88,17.9a35.71,35.71,0,0,1-.27,7c-2.38,23.06,12.37,36.57,35.39,32.44a29.38,29.38,0,0,0,4.51-1.58,8.53,8.53,0,0,0,2.43-1.5s.33-.58.33-.58a4.44,4.44,0,0,1,0,.74,6.06,6.06,0,0,1-1.11,1.39c-.74.81-1.46,1.59-2.16,2.41-12.6,26.64-56.68,33.19-82.64,12.53-3.73-3-6.3-6.95-9.58-10.31-4.33-4.43-8.84-5.41-14.08-1.74-14.68,10.23-30.48,16.29-48.81,13.08-3.46-.61-6.21,1.27-8.63,3.58-3.31,4.68-8.18,8.74-6.22,15.53,1.1,1.36,2.15,2.74,3.29,4.07a7.79,7.79,0,0,0,6.92,3.1c5.31-.48,8.73,2.45,11.82,6.28,8.25,10.26,18.77,17.63,30.55,23.23a109.77,109.77,0,0,0,13.16,4.89c2.55.83,5,1.66,6.8,3.75,1.44,1.65,3,1.49,4.58.13,1.07-.9,2.15-.61,3.12.28s1.73,1.59,2.62,2.35c1.5,1.29,3.38,1.78,4.72.26,3.49-4,8.06-3.93,12.8-4.44,10.76-1.16,21.24-3.85,31.71-6.64,21.07-5.61,40.85-14.42,60.48-23.62A127.13,127.13,0,0,0,368,264.23c2.48-1.93,4.63-3.2,7.91-2,1.14.41,2.78-.6,4.19-1,3.59-2.85,3.07-6.93,2.39-10.5-2.38-12.34-.09-25.19-4.22-37.3-2.09-6.12,4.81-9.81,4-15.53-1.14-6.58-2.53-13.12-3.35-19.73a190,190,0,0,0-4.31-21.36c-1.09-4.42-1.71-9.15-5.56-12.44C372.87,141.66,377.17,144.59,380.34,141.91Z"/>
          <path class="a719c949-7a97-4fae-8e59-11fafa9f3182" d="M95.05,344.2c-2.33-3.05-4.52-6.14-2.67-10.27C91.3,317,95.14,301,101,285.29a54.83,54.83,0,0,1,7.83-13.65c3-3.93,6.45-7.42,7.93-12.4.84-2.79,3.79-3.38,6.53-3.56.56-.31.74-.6.54-.86a.79.79,0,0,0-.6-.38l-3.54-.44a6.79,6.79,0,0,1-1.66-1.4h0c-.61-.56-1.19-1.16-1.78-1.75h0c-5.58-6.22-10.35-13.11-15.85-19.4h0c-1.87-7.2-3.59-14.46-7-21.14a2.44,2.44,0,0,1-.11-1.51,50.28,50.28,0,0,1,0-19.82,2.69,2.69,0,0,1,.13-1.61c1.95-4,3.77-8,3.24-12.65a2.39,2.39,0,0,1,.2-1.42c1.59-1.47.15-3.9,1.73-5.36l0,0c7.24-10.25,7.22-15.58-.1-21l.09,0a5.49,5.49,0,0,0-1.84-1.84l.08.08a5.49,5.49,0,0,0-1.84-1.84l.08.07a5.61,5.61,0,0,0-1.85-1.84l.1.11c-.83-1.27-2.58-.86-3.51-1.94L88,139.64c-3.54-1.9-7.06-2.83-10.49.26l0,0c-3,2-6.72-.14-9.72,1.76-1,.44-1.9,1-2.82,1.48a15.52,15.52,0,0,0-1.77,1,12,12,0,0,0-1.54,1.2c-.24.21-.45.44-.69.66-.45.41-.89.86-1.32,1.29-.24.19-.46.41-.69.6-.74.51-1.51,1-2.31,1.42a3.5,3.5,0,0,0-1.19,1.34,5.83,5.83,0,0,1-.9,1.57l0,0c-.64.53-1.19,1.16-1.85,1.67l0,0a6.88,6.88,0,0,1-1.62,1.47,2.26,2.26,0,0,1-1.35.45,4.36,4.36,0,0,0-2.17,1.78l.08-.08a6.85,6.85,0,0,0-1.87,1.81l.07-.08A8.4,8.4,0,0,0,44,161.08l.07-.08a8.4,8.4,0,0,0-1.83,1.84l.07-.07a8.4,8.4,0,0,0-1.84,1.83l.07-.07a8.36,8.36,0,0,0-1.83,1.83l.07-.07A8.91,8.91,0,0,0,37,168.13l.08-.07a8,8,0,0,0-1.83,1.83l.07-.07a8.4,8.4,0,0,0-1.84,1.83l.08-.07a8,8,0,0,0-1.83,1.84l.07-.08a6.81,6.81,0,0,0-1.81,1.86l.08-.07A5.68,5.68,0,0,0,28.19,177l.07-.08a4,4,0,0,0-1.77,2.21,2,2,0,0,1-.39,1.29,11.83,11.83,0,0,1-1.53,1.71h0A14.52,14.52,0,0,0,22.88,184l.08-.09c-1.19.85-.82,2.56-1.91,3.48h0a7.58,7.58,0,0,0-1.64,2.17A2.34,2.34,0,0,1,19,191c-.5.65-1,1.32-1.44,2a2.84,2.84,0,0,1-.37,1.56,18.57,18.57,0,0,1-1.43,1.78l.06-.07c-1.12.89-.76,2.58-1.87,3.47v0c-1,1-.65,2.59-1.76,3.49l0,0c-1,1-.64,2.6-1.74,3.51v0c-1,1-.72,2.6-1.7,3.6l0-.05c-1.13,1.06-.92,2.7-1.69,3.91a1.94,1.94,0,0,1-.17,1.36c-1.49,1.6-.28,4-1.6,5.63a2.21,2.21,0,0,1-.16,1.43,88.49,88.49,0,0,0,0,26.4,2.72,2.72,0,0,1,.12,1.6c1.48,1.54.22,3.86,1.58,5.43A2.84,2.84,0,0,1,7,257.66c.9,1.07.64,2.6,1.5,3.69A3.28,3.28,0,0,1,8.79,263c.94,1.06.62,2.67,1.61,3.71a2.13,2.13,0,0,1,.19,1.38,10.67,10.67,0,0,0,1.4,2.1,3.24,3.24,0,0,1,.33,1.62c.93,1.08.63,2.74,1.77,3.72l0-.06c1,1,.69,2.65,1.8,3.58l0-.05c1,1,.66,2.67,1.86,3.55l-.09-.09c.45.71,1.12,1.25,1.61,1.92l.05.07c1.16.83.76,2.57,1.95,3.39l-.09-.08a15.28,15.28,0,0,0,1.71,1.89h0a12.39,12.39,0,0,1,1.52,1.71,2.06,2.06,0,0,1,.4,1.29,4.12,4.12,0,0,0,1.75,2.23l-.08-.08a8.15,8.15,0,0,0,1.79,1.87l-.06-.06a21.76,21.76,0,0,0,1.73,1.86h0c.59.58,1.19,1.17,1.76,1.77h0q.9.85,1.77,1.77h0c.6.56,1.18,1.15,1.76,1.76h0c.61.57,1.2,1.16,1.77,1.76h0c.6.57,1.19,1.16,1.76,1.77h0c.61.57,1.2,1.15,1.77,1.76h0c.6.57,1.19,1.16,1.76,1.76h0c.61.57,1.2,1.16,1.77,1.76h0c.6.57,1.19,1.16,1.76,1.76h0c.61.57,1.19,1.16,1.76,1.76h0c.6.58,1.19,1.16,1.77,1.76h0c.6.58,1.19,1.16,1.76,1.77h0c.61.57,1.19,1.2,1.85,1.73l-.06,0A10.44,10.44,0,0,0,54.66,323l-.07-.07a6.29,6.29,0,0,0,1.86,1.81l-.07-.07a4.32,4.32,0,0,0,2.15,1.78,2.39,2.39,0,0,1,1.37.45,7.11,7.11,0,0,1,1.63,1.46l0,0c.65.53,1.2,1.18,1.89,1.66l-.07-.06a4.87,4.87,0,0,0,2.19,1.74,2.29,2.29,0,0,1,1.35.36,23.1,23.1,0,0,1,1.76,1.52l0,0a6,6,0,0,0,2.17,1.7,2.45,2.45,0,0,1,1.41.41,10.31,10.31,0,0,1,1.7,1.47h0a7.21,7.21,0,0,0,2.17,1.66,2.35,2.35,0,0,1,1.41.36c.65.48,1.28,1,1.91,1.47a3.44,3.44,0,0,1,1.66.45,6.64,6.64,0,0,1,1.67,1.36h0c1,1,2.6.68,3.5,1.79h0a6.12,6.12,0,0,0,2.29,1.58h.65l.62.23a2.65,2.65,0,0,0,3.52.05l.08-.06C93.86,345.36,95,345.27,95.05,344.2Z"/>
          <path class="aaaadcd6-3631-4131-97c4-93476d53038b" d="M158.43,251.28c2.95-2.49,5.75-3.66,10.18-2.92,14.75,2.43,28.35-1.81,41-9.26,3.27-1.92,6.34-4.18,9.44-6.38,1.67-1.18,3.16-1.36,4.67.14,2.29,2.26,5,4.22,6.76,6.86,4.42,6.72,11.19,10.18,17.95,13.55,13,6.5,26.72,8.25,40.89,4.26,7-2,14.14-3.49,20.28-7.92,4.13-3,7.6-6.31,9.89-10.9,1.29-2.6,3-5,4.51-7.48a2.56,2.56,0,0,0,1.35-1.69A4.7,4.7,0,0,0,326,228c.3-.44.53-.91.34-1.21-.45-.78-1.14-.55-1.79-.28l-2.08,1.72c-1.16.76-2.63.57-3.85,1.19-4.94-.11-9.72,1.77-14.82.64-4.17-.94-7.8-2.35-10.71-5.54a59.2,59.2,0,0,0-5.61-5.59c-3.49-2.94-4.62-6.61-4.1-11,.31-2.62,0-5.4.73-7.87,1.89-6.31-.24-12.19-1.37-18.18-.85-4.53-3.92-7-8.09-8.44a34.73,34.73,0,0,0-15.65-1.6c-4.35.49-8.7,1.24-13,2-6,1-11.2,3.33-14.7,8.63a13.57,13.57,0,0,1-2.42,2.55,3,3,0,0,1-3.94-.53c-.18-.23-.45-.41-.55-.67-5.05-11.59-15.65-14.19-26.49-15.81-4.1-.62-8.07-.75-11.33-3.64-.65-.49-1.11-.33-1.42.4l.05-.12a4.75,4.75,0,0,0-1.87,1.9l.12-.12a10.24,10.24,0,0,0-2,1.51,1.39,1.39,0,0,1-1.49.26c-1.1.89-3,.47-3.63,2.09l.23-.21a2.52,2.52,0,0,0-2,1.94l.18-.18a2.49,2.49,0,0,0-1.94,1.94l.17-.18a2.51,2.51,0,0,0-1.93,1.94l.18-.17a2.49,2.49,0,0,0-1.95,1.94l.18-.18a2.51,2.51,0,0,0-1.94,1.94l.18-.18a2.49,2.49,0,0,0-1.94,1.94l.18-.18a2.48,2.48,0,0,0-1.94,1.94l.18-.18a2.52,2.52,0,0,0-2,1.94l.19-.06c-3.89,1.43-4.44,5.16-5.74,8.37l-.05.08c-.91,1-.59,2.59-1.7,3.48l0,0c-.95,1-.74,2.6-1.63,3.67l.05-.1c-1.21,1.15-1.15,2.81-1.68,4.24a.67.67,0,0,1-.28,1c-1,1-.73,2.6-1.58,3.7l.07-.09c-.66.47-1.3,1-1.93,1.48a1.37,1.37,0,0,1-1.57.28c-2,1.25-4,1-5.95.07l-2.24.05a2.74,2.74,0,0,0-2.42,1.95l.23-.16a2.49,2.49,0,0,0-1.94,1.94l.18-.18a2.51,2.51,0,0,0-1.94,1.94l.18-.18a2.49,2.49,0,0,0-1.94,1.94l.17-.18a2.52,2.52,0,0,0-1.94,1.94l.23-.23c-1.94,1.64-1.91,3.28,0,4.93l-.21-.22a4,4,0,0,0,1.61,2.11l0,0a15.26,15.26,0,0,1,1.51,1.89l.12.19c1.29.63.76,2.63,2.3,3.07l-.21-.19a2.9,2.9,0,0,0,1.82,2l-.15-.15a4.5,4.5,0,0,0,1.78,2l-.08-.09a6.74,6.74,0,0,0,1.78,1.87l0,0a8.53,8.53,0,0,0,1.8,1.8l0,0a9,9,0,0,0,1.8,1.8l0,0a9,9,0,0,0,1.8,1.8l0,0a9.59,9.59,0,0,0,1.8,1.8l0,0a9.35,9.35,0,0,0,1.81,1.8l-.05,0a6.51,6.51,0,0,0,1.89,1.77l-.09-.09a3.39,3.39,0,0,0,2.06,1.7l.06-.13C153.34,251.41,155.43,252.49,158.43,251.28Z"/>
          <path class="ba245332-10b6-4d86-829e-fcd039dce8cc" d="M382.34,197.9c-1.29,1.57-2.36,3.39-3.91,4.64-3.17,2.57-3.61,5.8-3,9.46a14.69,14.69,0,0,0,.48,2.58,44.84,44.84,0,0,1,2.5,16.08c-.2,10.25,2.86,20.29,1.73,30.57,2.92,3.26,6.73,6.11,8.48,9.9,1.61,3.48.66,8.06,1.44,12a89.75,89.75,0,0,1,1.16,12.2,4.59,4.59,0,0,0,3.41,4.5c5.82,1.91,11.63,3.87,17.5,5.58,9,2.63,17.75,5.77,26.59,8.79a44,44,0,0,1,21.42,15.83c2.25.64,4.5,1.36,6.74,0,.59-1,.91-2.39,1.78-3,5.84-3.89,5.84-9.48,5.15-15.56a179.11,179.11,0,0,0-11.34-46c-1.19-3-2.37-6-3.61-9-10.18-24.48-11.69-26.13-29.89-44.94-7.6-7.87-16.49-11.92-26.92-13.46-4.93-.73-9.91-1.16-14.84-1.85C385.23,196,383.92,197.24,382.34,197.9Z"/>
          <path class="ba245332-10b6-4d86-829e-fcd039dce8cc" d="M401.89,512.48c2.81,4.12,2.5,9,2.68,13.52.61,14.61.55,29.26.75,43.88-1.87,4.86.28,9.63.39,14.45.17,7.58.82,15.16,1.26,22.73,1.8.81,3.58,1.06,5.27-.25h0c.94-1.05,2.66-.69,3.48-1.94l-.1.08c1-.9,2.86-.52,3.51-2.09l-.22.2a3.71,3.71,0,0,0,2.12-1.63l-.07.06c.69-.49,1.24-1.13,1.89-1.67l0,0a21.72,21.72,0,0,1,1.73-1.73l0,0a18.72,18.72,0,0,1,1.72-1.73l0,0a18.83,18.83,0,0,1,1.73-1.73l0,0a18.83,18.83,0,0,1,1.73-1.73l0,0a17.45,17.45,0,0,1,1.72-1.72l0,0c.54-.65,1.16-1.22,1.69-1.85l0,0a7.82,7.82,0,0,0,1.74-1.93l-.11.12a3.85,3.85,0,0,0,1.77-2l-.19.19c1.45-.51.91-2.49,2.26-3.07l.14-.22a8.36,8.36,0,0,1,1.48-1.87l0,0A5.2,5.2,0,0,0,442,578.3l-.18.19c1.44-.59,1-2.49,2.2-3.23l.05-.1a18.91,18.91,0,0,0,1.53-2l-.13.14c1.3-.76.88-2.53,2-3.39l0,0a4.84,4.84,0,0,0,1.5-2.48.82.82,0,0,1,.5-1.1c.46-.64.91-1.31,1.33-2l-.13.18c1.35-.82,1-2.53,1.92-3.6l-.06.11c1.22-.9.94-2.56,1.82-3.63l-.06.1c1.23-.91,1-2.55,1.79-3.67l-.08.15c1.33-1.11,1.23-2.81,1.74-4.25a.64.64,0,0,1,.31-1c1-1.2.9-2.79,1.49-4.14a.84.84,0,0,1,.37-1.17c.83-1.26.85-2.79,1.39-4.15a.71.71,0,0,1,.21-1.1c1.5-1.66.38-4,1.6-5.77a1,1,0,0,1,.21-1.29c1.71-2.25,0-5.22,1.56-7.5a1,1,0,0,1,.16-1.3c2-2.8-.21-6.36,1.64-9.19a1.11,1.11,0,0,1,.18-1.4c1.63-2.34.11-5.29,1.5-7.68,0-3,0-6.05,0-9.07a2.7,2.7,0,0,0-2-2.43l.19.23a2.53,2.53,0,0,0-1.95-1.95l.1.18c-.11-1-.56-1.25-1.42-.65-3-3.52-6.38-3.93-10.84-2.33-6.55,2.36-13.41,3.86-20.15,5.68a6,6,0,0,1-2.53.19c-9.69-1.64-19.74-1.68-28.74-6.41a2.25,2.25,0,0,0-.87-.05c2.15,3.67,5.18,7.21,1.56,11.65a72.86,72.86,0,0,0,.68,8.51A7.18,7.18,0,0,1,401.89,512.48Z"/>
          <path class="a719c949-7a97-4fae-8e59-11fafa9f3182" d="M397.91,788.65c-1.38,1.07-2.76,2.14-4.15,3.19-.69.53-1.63,1.58-2.1,1.42-5.43-1.89-8.67,2.71-12.78,4.36-9.83,3.93-19.69,7.52-30.27,8.75-2,.23-4.07,1.11-6.05,1-2.6-.2-3.74,3.43-6.11,2.29-2-1-3.65-2.86-5.46-4.35a2,2,0,0,0-1.63.54l-.12.17a8,8,0,0,0,.15,7,2.53,2.53,0,0,1,.16,1.46c.83,1.14.62,2.67,1.47,3.79a3.26,3.26,0,0,1,.22,1.69c1.56,1.49.16,3.94,1.77,5.41l0,0c1,.95.71,2.46,1.51,3.5a3.22,3.22,0,0,1,.29,1.65c1,1,.63,2.63,1.58,3.67a2.43,2.43,0,0,1,.21,1.45,13.92,13.92,0,0,0,1.43,2,2.75,2.75,0,0,1,.33,1.46,6.92,6.92,0,0,0,1.73,2.11l0,0c.55.63,1.17,1.21,1.74,1.82h0c.6.58,1.19,1.16,1.76,1.77h0c.6.57,1.19,1.15,1.77,1.76h0c.6.57,1.18,1.16,1.76,1.76h0c.6.57,1.19,1.16,1.76,1.76h0c.6.57,1.18,1.17,1.78,1.76v0a9,9,0,0,0,2.07,1.7,3,3,0,0,1,1.52.38c.67.48,1.33.93,2,1.38a2.59,2.59,0,0,1,1.5.24c1.05.9,2.61.57,3.6,1.56a3.43,3.43,0,0,1,1.7.27,9.25,9.25,0,0,0,2.12,1.42h.7l.66.2c1.12,1,2.71.77,3.89,1.54l.47-.11.45.14a6.79,6.79,0,0,0,2.22-1.64h0c.57-.6,1.16-1.19,1.76-1.76h0a14.15,14.15,0,0,1,1.71-1.57,2.43,2.43,0,0,1,1.52-.31c1.11-.81,2.58-.65,3.73-1.37a3.88,3.88,0,0,1,1.64-.33c.69-.49,1.31-1.09,2-1.59l.1-.09a5.68,5.68,0,0,1,1.68-1.56l.18-.19a4.6,4.6,0,0,1,1.58-1.58l.18-.18a4.6,4.6,0,0,1,1.58-1.58l.19-.18a4.43,4.43,0,0,1,1.58-1.58l.17-.18a4.51,4.51,0,0,1,1.58-1.58l.19-.19a5.06,5.06,0,0,1,1.57-1.62l.13-.14a18.72,18.72,0,0,1,1.57-1.87l0,.05c1.13-1.06.91-2.69,1.68-3.9a2,2,0,0,1,.16-1.37c1.26-14.69,1.61-29.37-.14-44l0,.11C399.32,789.56,399.2,788.41,397.91,788.65Z"/>
          <path class="a719c949-7a97-4fae-8e59-11fafa9f3182" d="M213.13,791.54c-1.56,1.29-3.15,2.56-4.69,3.86-.92.77-2.09,1.74-3.09,1.05-2.49-1.74-4.4-.21-6.49.66A52,52,0,0,1,179.31,801c-7.56.07-15-.57-22.52-1.21a5.16,5.16,0,0,1-3.08-1.23c-1.33-1.11-2.72-2.15-4.09-3.21-.64-.58-1.14-.47-1.52.31l0-.13a5.34,5.34,0,0,0-1.82,1.84l.13-.05c-.53.32-.73.66-.6,1.05s.27.61.43.61c0,1.06,0,2.12.07,3.18,1.33,1.64.17,4,1.55,5.59a2.93,2.93,0,0,1,.17,1.58c1.48,1.55.12,4,1.69,5.5a2,2,0,0,1,.15,1.33c.76,1.23.54,2.87,1.7,3.93l0-.06c1,1,.65,2.68,1.87,3.55l-.09-.09a11.07,11.07,0,0,0,1.72,1.9l0,0a17.56,17.56,0,0,1,1.61,1.83l.07.12c1.23.8.83,2.43,1.73,3.39l.06.08A1.26,1.26,0,0,1,159,832c-.11.45-.23.68-.38.68a1.2,1.2,0,0,1,0,1.06,7,7,0,0,0,1.64,2.2h0c.6.57,1.2,1.16,1.77,1.77h0c.6.57,1.19,1.15,1.76,1.76h0c.6.57,1.19,1.16,1.76,1.76h0c.6.57,1.19,1.16,1.76,1.76h0c.61.58,1.19,1.18,1.81,1.75l0,0c.93,1.08,2.61.7,3.53,1.8l1.84.3c1.64,1.07,3.84,0,5.37,1.4l6.54-.06c1.64-1.34,4-.14,5.61-1.64h0a10.06,10.06,0,0,1,1.81-1.57l.16-.15a4.57,4.57,0,0,1,1.6-1.58l.17-.19a4.62,4.62,0,0,1,1.59-1.58l.18-.18a4.68,4.68,0,0,1,1.58-1.58l.18-.18a6,6,0,0,1,1.57-1.69l.08-.09a8.58,8.58,0,0,1,1.69-1.66l.11-.1a10,10,0,0,1,1.64-1.74l0,0A8.81,8.81,0,0,0,206,832a2.42,2.42,0,0,1,.24-1.4,6.82,6.82,0,0,0,1.49-2.23,1.63,1.63,0,0,1,.16-1.26c1.06-1.09.8-2.71,1.59-3.92a2.07,2.07,0,0,1,.18-1.38c1.53-1.5.13-3.91,1.69-5.41a3.28,3.28,0,0,1,.19-1.67c.89-1.14.7-2.68,1.47-3.85a2.14,2.14,0,0,1,.13-1.39c1.87-2.12-.09-5.13,1.69-7.27a2.9,2.9,0,0,1,.15-1.57c1.12-2.94,1.44-5.87-.19-8.76l.05.1A1.17,1.17,0,0,0,213.13,791.54Z"/>
          <path class="ba245332-10b6-4d86-829e-fcd039dce8cc" d="M410.85,388.12a11.29,11.29,0,0,1-3.32.79,9.79,9.79,0,0,1-3.25-1.14c-2.39-1.06-5.42-2.76-7.33-1.3-2.92,2.24-4.4,5.73-4.15,9.94.36,6.07,0,12.19,0,18.29,0,8.71.09,17.42.14,26.13a4.13,4.13,0,0,0,4-1c8.46-8.42,17.23-16.59,24.31-26.29,4.57-6.26,4.34-10.67-1-16.37C417.32,394,414,391.13,410.85,388.12Z"/>
          <path class="a0852da7-2a63-45d8-ae17-0cff799c158a" d="M377.12,87c-3.58-.9-5.21-3.47-6-6.85A2.9,2.9,0,0,0,368.58,78a2.73,2.73,0,0,0-3.29,2.2c-.79,5.21-4.51,6.06-8.81,6.94-12.07,2.44-24.25,4-36.49,5.28-3.77.4-7.53,1-11.29,1.66-7.55,1.23-15.28.88-22.73,2.08a38,38,0,0,1-19.61-2,37.91,37.91,0,0,0-11.19-2c-4.35-.2-8.68-1.21-13-1.91-6.94-1.12-13.86-2.32-20.79-3.41-8.47-1.34-16.37-4.43-24.23-7.66a74.42,74.42,0,0,0-9.88-3.59c-5.24-1.36-7.23-.32-9.32,5-1.27,3.28-3.82,5.8-4.65,9.38a5.83,5.83,0,0,0,1.18,5.62,30.32,30.32,0,0,0,12.9,8.8c11.32,4.11,23,6.74,34.82,9,22.33,4.22,44.89,4.21,67.47,3.71,4.28-.09,8.08.15,11.49,3a8.7,8.7,0,0,0,5.72,1.92c8.5,0,17,.09,25.42-1.43,3.09-.55,5.83-1.66,7.33-4.24s3.3-3,5.75-3.09c3.81-.09,7.62-.17,11.43-.41a32.72,32.72,0,0,0,18-6.18c3.47-2.58,4.89-5.61,4.59-9.74A25.84,25.84,0,0,0,377,86.81Z"/>
          <path class="bccd1ee3-3775-4eb4-bd6d-5822f5c522bd" d="M324.53,226.49,326,228c.52-.65,1.29-1.24,1.47-2a6.18,6.18,0,0,0-.41-2.39,10.11,10.11,0,0,0-2,1.28C324.73,225.26,324.7,226,324.53,226.49Z"/>
          <path class="bccd1ee3-3775-4eb4-bd6d-5822f5c522bd" d="M318.6,229.4a3.39,3.39,0,0,0,3.85-1.19A3.83,3.83,0,0,0,318.6,229.4Z"/>
          <path class="bccd1ee3-3775-4eb4-bd6d-5822f5c522bd" d="M325.39,229.54,324,231.23A1.54,1.54,0,0,0,325.39,229.54Z"/>
          <g>
            <path class="f2606e50-7f21-4f77-ab73-0097922cecac" d="M200.1,483.82c3.11.09,6.88,3.34,7.17,6.59a28.65,28.65,0,0,1-.19,7.85c-1.19,6.34-7.29,8.82-12.66,5.36a15.45,15.45,0,0,1-2.12-1.53c-3.48-3.16-4.22-6.73-2.34-11C191.73,487,196.38,483.71,200.1,483.82Z"/>
            <path class="f2606e50-7f21-4f77-ab73-0097922cecac" d="M199.58,429.43c3.94,1.3,6.12,4.95,6,10.56a11.14,11.14,0,0,1-2.4,7.35c-3,3.87-6.52,4.43-10.73,1.79-6.38-4-7-12.14-1.44-18.08C193.82,428.06,195.48,428.07,199.58,429.43Z"/>
            <path class="f2606e50-7f21-4f77-ab73-0097922cecac" d="M202.52,386.71c-2.53,1-4.51-.79-6.25-2.24-6.6-5.48-4.15-13.09-.35-16.82,2.24-2.2,4.18-2.12,6.93-.28a10.62,10.62,0,0,1,5.06,10.35c-.08.86-.14,1.74-.24,2.6A7.45,7.45,0,0,1,202.52,386.71Z"/>
            <path class="f2606e50-7f21-4f77-ab73-0097922cecac" d="M321.27,238.5s0,0,0,0h0Z"/>
            <path class="f2606e50-7f21-4f77-ab73-0097922cecac" d="M321.47,233v.12a1.1,1.1,0,0,1-.18-.14Z"/>
            <path class="f2606e50-7f21-4f77-ab73-0097922cecac" d="M363.46,282.06v0l0,0Z"/>
            <path class="f2606e50-7f21-4f77-ab73-0097922cecac" d="M6.67,208.3c2.65-6.55,6.2-12.64,9.64-18.78,11.28-20.12,28.29-34.14,48-45.26.88-.49,2.44-.35,2.05-2.13-1.76-2-4.3-1.52-6.53-2-7.77-1.67-15.43-3.6-22-8.47s-7.69-10.72-1.1-17.74a43.1,43.1,0,0,1,8.39-6.36,70,70,0,0,1,15-7.24c28.88-9.85,58.48-14.87,89.07-13,3.52.22,7,.57,10.54.82,3.07.22,3.64-.1,4.59-2.81,1.34-3.87,2.39-7.86,4-11.63A101.65,101.65,0,0,1,202,30.5c12.35-9.15,25.3-17.16,40.05-21.69A213.58,213.58,0,0,1,269.37,2c21.43-3.6,41.39.61,59.53,12.88,15.45,10.45,26.81,24.45,35.49,40.75A66.69,66.69,0,0,1,372,78.87c.31,2.59,0,5.86,1.39,7.56,2,2.42,5.49.27,8.32.28,1.47,0,2.93.3,4.39.33,11.48.31,22.72,2.81,34.11,3.69,19.35,1.49,38.42,4.77,57.56,7.62,5.78.86,11.29,2.51,16.29,6.13s6.23,8.34,5.44,13.82a18.42,18.42,0,0,1-6.74,12,49.29,49.29,0,0,1-14.43,8.27A201.57,201.57,0,0,1,434,149.36q-26.67,3.27-53.51,4.22c-2.35.09-4.72,0-6.91,1.56a9.74,9.74,0,0,0,0,2.47,279.71,279.71,0,0,1,5.88,30.21c.46,3.16.23,7.07,2,9.24,2.29,2.77,6.61.86,10,1.12,9.44.69,18.8,2,27,6.92,11.77,7,21.69,16.22,28.2,28.44a246,246,0,0,1,21.85,55.54c3.46,13.72,5.05,27.71,5.86,41.78a12.78,12.78,0,0,0,4.85,9.77,110.17,110.17,0,0,1,18.8,20.9c8.24,11.62,14.41,24.17,16.35,38.51a21.83,21.83,0,0,0,1.26,5.11c.23.61,1.34.88,2,1.31v17.62c-2.1,1.44-2.91,3.54-3.27,6-2.9,19-12,34.72-25,48.48a110,110,0,0,1-20.12,17c-2.16,1.4-3.56,2.88-3.29,5.63,1.14,11.83-.79,23.41-3,35a142.6,142.6,0,0,1-30.35,65.56c-6.45,7.85-14.18,14-24.15,16.79a2.41,2.41,0,0,0-2,2.41c-.13,1.75-.18,3.52-.18,5.28,0,24.06.18,48.13-1.17,72.18-1,18.16-1.71,36.35-2.83,54.5-1.17,18.74-2.28,37.49-2.46,56.27-.08,7.92,0,15.85,0,23.79A52.19,52.19,0,0,1,396.73,851a22,22,0,0,1-12.39,13,47.58,47.58,0,0,1-18.71,4.5,26.41,26.41,0,0,1-10.32-1.66c-10.84-4.32-19-11-23-22.55s-7.15-23.57-10-35.55c-3.25-13.69-5.81-27.59-9.77-41.07-7-23.62-14.54-47.07-22.27-70.46-8.93-27-17.21-54.22-24.58-81.7-2.55-9.46-3.53-10.21-12.34-10.22-3.79,0-6.88,1.37-8.65,5-.78,1.57-1.55,3.16-2.17,4.8-4.25,11-7.64,22.17-8.49,34-.22,3.21-.72,6.42-1.17,9.61-1.41,9.87-2.76,19.74-4.3,29.59-2,12.77-3.19,25.62-4.3,38.48-1.26,14.62-2.88,29.2-4.45,43.79-2.35,21.9-5.64,43.64-12.39,64.69a94.34,94.34,0,0,1-4.51,11.44c-3.55,7.55-9.84,11.31-18,12.46-11.39,1.6-20.63-3.11-29.09-9.91a12.6,12.6,0,0,1-3.39-5.07c-4.76-12-9.21-24.06-11.34-36.86-1.46-8.68-3.09-17.34-4.83-26-3.64-18.13-6.86-36.32-8.76-54.71-.73-7-1-14.05-1.6-21.06-2.28-25.15-3.63-50.36-3.69-75.6-.13-44.32-.31-88.66.34-133,.48-32.9,1.61-65.71,5.34-98.41.86-7.58,1.68-15.16,2.36-22.76.31-3.55,0-3.84-3.48-4.78-10.76-2.9-21.54-5.7-31.8-10.18a203.65,203.65,0,0,1-58.91-39.55c-14.95-14.18-25.92-31-31.83-50.9-6.23-21-5.87-41.67,2.38-62.06Zm140,553.8h0c1.83,9.8,3.93,19.55,5.66,29.36.59,3.35,2.18,5.33,5.37,6.08,14,3.32,27.87,3.61,41.44-2.11a7.87,7.87,0,0,0,5.35-7.2c1.49-14.88,3.31-29.73,5-44.59,2.65-23.6,3.83-47.36,8.32-70.76,1.82-9.49,2.72-19.17,3.7-28.79,1.41-13.88,5.82-26.89,10.85-39.74a31.72,31.72,0,0,1,5.51-9,14.63,14.63,0,0,1,10.74-5.23c3.5-.23,7-.08,10.52-.41,6-.55,10,2.58,13.2,7,3,4.1,4.31,9,5.59,13.78,6,22.38,12.35,44.66,19.74,66.61,8.8,26.11,16.76,52.49,25.2,78.72,4.23,13.17,6.47,26.77,9.87,40.12,3,12,.65,10.39,13,9,12.68-1.36,24.58-5.28,36.09-10.68,3.89-1.82,5.63-4.31,5.85-8.71,1.49-30.47,3.22-60.92,4.82-91.39.28-5.27.35-10.55.43-15.84.22-14.08.59-28.16.55-42.24-.07-15.84-.57-31.68-.74-47.52a6.44,6.44,0,0,0-3.73-6.28,81,81,0,0,1-19.44-15c-8.85-9.27-15.88-19.54-19.22-32.1-.79-3-1.56-3.45-4.36-2.86-13.48,2.89-27.11,4.9-40.72,7.06a242.76,242.76,0,0,1-42.06,3.07c-3.81-.06-7.62-.1-11.43,0-13.3.35-26.4-1.84-39.27-4.48-19.51-4-39.23-7.17-58.54-13-2,1.75-2.27,3.5-2.77,5.18-2.73,9.08-6.67,17.56-13.33,24.48-2.35,2.44-2.17,5.29-2.17,8.2,0,17.9-.06,35.82,0,53.73.08,23.18,1.1,46.33,2.8,69.44.79,10.83,1.38,21.66,2.17,32.49a399,399,0,0,0,6,43.56Zm20,73.83h0c1.06,5,4.68,6.28,9,6.84,1.16.15,2.32.37,3.49.43,8.66.38,11.51-1.36,14.65-9.41,3.94-10.09,6.26-20.59,8.38-32.47-6.31,2.16-10.8,4.51-15.78,5.14-5.22.65-10.39,1.88-15.74,1.37-4.87-.47-9.72-1.68-15.26-1.47,1.5,9.35,2.9,17.89,8.67,25a11.94,11.94,0,0,1,2.61,4.53ZM353.2,849.68h0c2.71,1.09,5.55,1.89,8.19,3.13,4.22,2,8,3.06,11.75-1.23,1.35-1.53,4.21-1.83,6.42-2.53a8,8,0,0,0,5.47-5.28c.91-2.76,2-5.64,2-8.49.23-11.68.09-23.37.09-35.45-1.63.1-2.29,0-2.74.2a112.34,112.34,0,0,1-43.28,13.45c-3.06.31-3.76,1.14-3.16,3.85a144.85,144.85,0,0,0,8.46,25.81,11.87,11.87,0,0,0,6.77,6.54ZM406.1,491h0c5.87,2.15,12,2.6,16,3,24.09-1,42.27-10.12,57.44-25.64a89.32,89.32,0,0,0,15.08-20.49c10.64-20,10.89-40.45,2.32-61.08-7.05-17-19.08-30.08-33.29-41.39-2.73-2.17-5.59-3.08-9-2.22-12.9,3.3-24.15,9.07-31.25,21a91.27,91.27,0,0,0-8.92,20c-1,3.32-.78,5.82,1.85,8.7,9.66,10.57,10.48,23.37,2.86,35.56-3.15,5-7.43,9.06-11.34,13.44S400,450.58,396.06,455c-2.18,2.45-4.1,5-3.71,8.6a5.31,5.31,0,0,1-.24,2.61c-2.74,5.88.15,10.79,2.6,15.78,2.36,4.83,6.56,7.29,11.39,9.06ZM400,510.29h0c3.9,23.18,4.75,46.58,5.35,70,.17,6.44.48,12.87.82,19.3.11,2.14,1.72,3,3.71,1.95,5-2.57,9.48-5.63,13-10.15,14.64-18.48,24.76-38.94,28.27-62.47,1.2-8,2.85-16,4.54-25.46-7.76,2.32-14.07,4.71-20.76,5.62-2.38.32-3.5,1.84-3.5,4.25A84.85,84.85,0,0,1,428.19,535c-2.78,10.67-8.35,19.92-14.28,29-.63.95-1.61,1.9-2.82.84-.73-.63-.44-1.62,0-2.37,6.2-10.13,9.22-21.46,12.47-32.7a61.13,61.13,0,0,0,2.67-15.55c.07-3-.51-4-3.26-4-7.75,0-15-2.23-21.94-4.83-2.23,1.44-1.35,3.32-1.09,4.87Zm38-264.42h0a63.13,63.13,0,0,0-17-22.17,30.68,30.68,0,0,0-11.49-6.18,90.21,90.21,0,0,0-25.14-3.5,10.13,10.13,0,0,0-.51,2.75c.39,2.9.95,5.76,1.51,9,5.2,1.07,10.29,2,15.34,3.2a2.82,2.82,0,0,1,1.66,1.9,2.39,2.39,0,0,1-1.65,2.77,14.66,14.66,0,0,1-4.25.75,29.43,29.43,0,0,1-4.34-.61l-5.58-.84c.38,6.37.48,12.48,1.17,18.52a288.25,288.25,0,0,1,1.32,35.13c0,2.73.08,5.1,3,6.66a9.4,9.4,0,0,1,5.11,7.68,3.26,3.26,0,0,0,2.79,3c10.37,2.06,20.34,5.47,30.3,8.95a4.6,4.6,0,0,0,1.72.28c1.29-.08,2.33-.67,2-2.15-1.07-5.15-1.87-10.4-3.43-15.43A270.89,270.89,0,0,0,417,259.36a23.36,23.36,0,0,1-1.11-2.38,1.79,1.79,0,0,1,.59-2.29c.31-.17,1.16.26,1.5.65a15.24,15.24,0,0,1,2.07,2.8c9.15,16.54,16.06,33.89,18.42,52.76.46,3.64,1.75,5.87,5.17,7.3,5.61,2.35,11.06,5.07,17.27,7.95a147.78,147.78,0,0,0-2.11-20.75,157.5,157.5,0,0,0-9.64-33.72q-5.3-13-11.14-25.81ZM378,299h0c-.69-5.8-1.21-11.63-1.78-17.42-1.94-1-2.64.54-3.54,1.61-20.11,23.76-41.79,46-64.1,67.73a180.17,180.17,0,0,1-19.67,16.23c-3.75,2.75-7.48,3.18-11.42.74a93.26,93.26,0,0,1-10.29-6.72c-7.27-5.92-14.32-12.12-21.42-18.27C240,338,234.4,332.92,227,326.42c0,4.59,0,6.89,0,9.19.36,15.28-.9,30.49-2.38,45.66-1.4,14.35-1.48,28.72-1.33,43.07.28,24.94,2.5,49.78,4.9,74.6.93,9.63,1.51,19.28,2.29,28.93.35,4.49.77,5,5.15,5.45a297.23,297.23,0,0,0,68.43-.94c19.21-2.44,38.33-5.3,57.23-9.51,8.86-2,17.58-4.54,26.41-6.68,2.44-.59,3.45-1.83,3.36-4.25-.11-2.64-.19-5.28-.16-7.93a12.78,12.78,0,0,0-3.33-8.76,35.25,35.25,0,0,1-7.39-12.89,8.83,8.83,0,0,0-4.36-5.22c-22.33-13.55-35-34.08-41.84-58.64a84.41,84.41,0,0,1-2.58-28.8,172.85,172.85,0,0,1,9.22-44.64A79.67,79.67,0,0,1,354,320.41c6-7.31,12.34-14.17,21.65-17.35,2-.68,2.59-2,2.35-4.06Zm96.78-175.87h0c3.47-1.39,7.06-2.64,9.55-5.18.14-2.22-1.28-2.26-2.31-2.44-10.4-1.76-20.79-3.73-31.25-5.1-18.6-2.44-37.26-4.53-55.91-6.7-3.2-.38-6.43-.51-9.66-.62-5.41-.2-5.65-.2-6.38,5.28s-4.27,8.22-8.67,10.2A92.15,92.15,0,0,1,352.52,124c-27.69,6.23-55.71,7.62-84,6.12-12.29-.66-24.62-.56-36.9-2a235.47,235.47,0,0,1-46.14-10.88,41.93,41.93,0,0,1-4.06-1.69c-6.87-3.18-12.68-7.43-14.77-15.77-6.79.7-12.61,1.28-18.42,1.89-16.63,1.74-33.4,2-49.89,5.1-11.83,2.2-23.55,4.85-34.87,9-3.51,1.3-7.17,2.39-9.84,4.9-.23,2.21,1.3,2,2.26,2.18a253.91,253.91,0,0,0,30.37,5q30.6,3.53,61.25,6.57c10.21,1,20.47,1.79,30.72,2,17.61.38,35.14,2.32,52.77,1.88a9.51,9.51,0,0,1,2.62.2c12.73,3.39,25.71,2.51,38.5,1.38,15.83-1.42,31.67-.88,47.49-1.65,24.33-1.19,48.72.34,73-1.45,19.88-1.47,39.83-2.4,59.37-6.94a154.09,154.09,0,0,0,22.74-6.73Zm-105.09-22.5h0c-1-.61-2.18-.9-3.16-1.52-2.51-1.57-3.5-3.84-2.5-7.8a282.62,282.62,0,0,1-31.83,11,143.47,143.47,0,0,1-68.8,2.23c-9.41-2-18.45-5.75-27.63-8.82-.56-.18-.78-1.38-1.16-2.11.5-.22,1-.69,1.52-.62,2.6.37,5.18,1,7.79,1.32,11.89,1.69,23.78,3.5,35.7,5a131.67,131.67,0,0,0,25.5.21,184.08,184.08,0,0,0,34.64-5.81c4.81-1.31,9.63-2.6,14.39-4a57.14,57.14,0,0,0,7.37-2.83,2.83,2.83,0,0,0,1.6-3.65,48,48,0,0,0-2-5.8,158.2,158.2,0,0,0-24.71-38.28C326.69,28,314.3,21.94,300.22,18.71a76.52,76.52,0,0,0-35.73.58c-4,1-7.93,2.08-11.92,3C233,27.08,216.24,36.87,201.31,50.15c-8.51,7.56-14.36,17-19.42,27-1.23,2.45-.83,3.59,1.88,4.82a74.81,74.81,0,0,0,9.79,3.91c9.82,2.91,19.57,6.17,29.8,7.55a13.19,13.19,0,0,1,3.34,1c.3.13.4.88.46,1.38a.82.82,0,0,1-.46.65,11.53,11.53,0,0,1-3.36.67c-15-1-29.82-2.81-43.05-10.9a4.76,4.76,0,0,0-1.76-.23,16.19,16.19,0,0,0-2.37,7.4,15.38,15.38,0,0,1-1.09,4.2c-2,4.51-1.88,6,1.59,8.37a38.77,38.77,0,0,0,11.23,4.87c18.87,5.65,38,9.83,57.75,10.79,21.41,1,42.78,2.06,64.2.84a242.5,242.5,0,0,0,51.08-8.47,46.87,46.87,0,0,0,8.25-3c4.84-2.4,5-7.5.5-10.35ZM135.78,530.84h0c0,3.8,0,7.61,0,11.42a1.64,1.64,0,0,0,.86,1.22,1.72,1.72,0,0,0,1.55-.31,60.25,60.25,0,0,0,9.26-18.79,2.54,2.54,0,0,0-1.24-3,77,77,0,0,0-7.94-3.65,1.74,1.74,0,0,0-2.4,1.71c-.1,3.8,0,7.61,0,11.41Zm6.73-19.9h0a103.29,103.29,0,0,0,26.34,9.66c16.67,3.38,33.33,6.82,50,10.19a30.08,30.08,0,0,0,4.36.42,1.66,1.66,0,0,0,1.7-1.62,14.72,14.72,0,0,0,0-3.51c-1.45-12.83-3.1-25.64-4.37-38.49-3.09-31.28-5.29-62.61-3.74-94.07.52-10.85,1.77-21.65,2.42-32.49.49-7.9.56-15.83.73-23.76,0-1,.4-2.48-1.14-2.94-1.32-.39-2.15.64-3,1.35-6.36,5.21-12.63,10.52-19.09,15.61-5.08,4-10.38,7.69-15.58,11.5-2.76,2-5.34,1.65-8.1-.26a22,22,0,0,1-5.41-5.7c-4.92-7-9.85-13.89-13.57-21.6-.61-1.26-.93-2.83-2.5-3.4-1.36.37-1.67,1.48-1.84,2.67-1.23,9-2.61,18-3.7,27-2.26,18.94-4.56,37.87-6.46,56.85-1.17,11.67-1.92,23.41-2.33,35.14-.57,15.83-.33,31.7-1.06,47.54-.25,5.44,2,7.65,6.36,9.87Zm179-277.85h0l.06.06c.07.16.17.22.24.21l.14.1c.15.1.13,0,0-.2a.31.31,0,0,0,0-.21l-.05-.17c.24-.19-.14-.59,0,0a.69.69,0,0,1-.19.07c0-.06-.1-.11-.15-.18s0,.07,0,.1v-.09l-.18.17c-.76,1.59-.06,3.18,0,4.77,0,.25,0,.49,0,.74-.31-.37-.63-.73-.94-1.09.3.37.62.74.93,1.11h0a3.26,3.26,0,0,0-4.05,0c-8.95,7.46-25.19,2.19-32.86-5.78a20.76,20.76,0,0,1-6.1-16c.22-3.8.78-7.59,1.34-11.36,2-13.63-3.5-20.93-16.67-24.59-8.19-2.27-16.3-1.47-24.35.62a12.41,12.41,0,0,0-7.22,4.72,49.68,49.68,0,0,1-3.92,4.75c-1.84,2-4.93,1.82-5.76-.7-2.19-6.58-6.89-9.74-13.2-11.62-7.41-2.21-14.51-1.42-21.51,1.3-1.3.51-2.33,1.74-3.44,2.66s-2.08,2.4-3.36,2.76c-9,2.5-12.51,10-16.24,17.32-2.13,4.16-3.53,8.69-5.29,13-2.9,7.16-8.44,11-15.8,12.6-1.4.29-2.85.4-5.11.71,5,7.69,9.62,14.51,18.33,17.52a50.33,50.33,0,0,0,34.48.08c8.33-3,16.38-6.49,22.17-13.7a12.35,12.35,0,0,1,4.19-3.1c2.63-1.29,5.24,0,6.74,2.94.39.77.54,1.88,1.17,2.3,4.71,3.22,7.3,8.38,11.35,12.17a32.85,32.85,0,0,0,5.63,4.15c16.42,9.92,33.65,11,51.59,4.76,9.28-3.24,17.61-8,24.51-15.07,1-1,1.72-2.4,3.38-2.5l0,0,0,0h0a4.69,4.69,0,0,0,0-.75c.05-1.54.11-3.09.17-4.63ZM157.15,287.45h0c-1.21,7.2-2.28,14.43-3.46,21.64a5,5,0,0,0,.85,4.13c2.06,2.6,2.92,5.71,3.72,8.82,3,11.31,9.61,20.58,16.37,29.79,1.64,2.23,2.86,2.35,5.22.87,1.49-.93,2.91-2,4.31-3Q198.59,338.92,213,328.1c1.12-.85,2.57-1.53,2.63-3.83-11.12-3.76-22-8.64-31.41-16-9.18-7.16-17.1-15.7-25.36-24.64-.78,1.74-1.48,2.74-1.66,3.83Zm-7.4-21.88h0c1.34,0,2.06-1.23,2.36-2.29a2.64,2.64,0,0,0-.89-2.26c-1.86-1.42-3.93-2.55-5.87-3.86-14.18-9.6-21.93-22.53-20.74-40.09.14-2,.16-4.1.36-6.15.21-2.27,1.15-2.88,3.49-2.25,2.79.76,5.58,1.61,8.32,2.53,5.89,1.94,8.35.9,11.1-4.95a59.2,59.2,0,0,0,2.63-6.52A53.42,53.42,0,0,1,169,173.52c3-2.29,4.85-4.8,5.45-8.59s1.87-7.33,3.12-12c-26.94-1.68-52.82-4.66-78.55-7.37-1.48,2.34.48,3.52.72,5,1.07,6.65,1.79,13-.46,19.87-3,9.15-5.78,18.46-7.17,28.09a43.29,43.29,0,0,0,.81,18.3A73.45,73.45,0,0,0,103,239.16c7.07,10.14,16,17.84,28.16,21.4,4.77,1.41,9.47,3.1,14.23,4.52a14.3,14.3,0,0,0,4.33.49Zm225.31-14.22h0c-1.24-9-2-18.07-3.31-27.08-2.28-16-4.66-31.93-7.31-47.84-1.06-6.34-2.95-12.55-4.48-18.82a4,4,0,0,0-4.32-3.46c-23.77,0-47.55-.12-71.3,1.21-13.46.75-26.9,2-40.41,1.06-3.77-.25-7.63.08-11.23-1.65a8.45,8.45,0,0,0-3.47-.34c-12,0-24.07,0-36.06-1.33-1.52-.17-3,.16-3.61,1.78-.8,2.21-1.47,4.52-.46,6.85.17.4.93.64,1.46.78a7.35,7.35,0,0,0,1.76.11c13,.29,22.69,6.9,30.87,16.34.56.65,1.09,1.36,1.68,2,.18.2.51.25,1.09.52,9-11.1,21.68-13.67,35-14.62,14.94-1.06,31.4,13.74,31.69,28.3a98.7,98.7,0,0,1-.88,16.62c-1.52,10.11,2.2,12.72,11.22,13.59,6.22.61,12.25-.69,18.22-2.28,3-.79,3.95-4.24,7.29-5.54,3.5,7.84,4.05,15.66.87,23.53a39.62,39.62,0,0,1-5.55,10c-7.45,9.25-16.14,17.11-27.84,20.63a120.3,120.3,0,0,1-17.1,4,52.08,52.08,0,0,1-28.45-3.78c-12.23-5.33-23.6-11.93-31.37-24.17L214.73,251c-14.48,10.64-30.45,16.19-48.62,14.35-1.68-.18-3.63-1-5,.63-1.61,1.95-1.35,4.43-1,6.71a5.74,5.74,0,0,0,1.87,2.84c1.68,1.63,3.51,3.11,5.31,4.62a189,189,0,0,0,29.93,20.09c18.48,10.21,38.18,12.68,58.79,8.65a286.26,286.26,0,0,0,65.21-20.78c14.14-6.5,28.27-13,41-22,2.15-1.52,4.39-3.21,6.86-3.92,5.8-1.69,6.61-5.54,5.9-10.75Zm-11.6,30.73h0c.36.32.73.63,1.1.94-.29-.28-.56-.57-.83-.86l.2.07-.34-.22h0l-.06-.06h0l-.1.1s0,0,0,.05c-1.5,3.09-4.7,4.08-7.35,5.66-11.35,6.76-23.37,12.16-35.39,17.51a293.15,293.15,0,0,1-60.17,19c-6,1.25-12.07,2.1-18.37,3.17.41.94.53,1.91,1.09,2.41,9.36,8.42,18.61,17,28.2,25.13,11.63,9.9,12,8.19,22.32.46,9.18-6.89,17.17-15.08,25.21-23.18,14-14.13,27.7-28.61,41.51-43a38,38,0,0,0,3.42-4c.8-1.1.1-2.18-.47-3.18l0,0ZM355.65,534h0a58.32,58.32,0,0,0,9.9,18.5,223.15,223.15,0,0,0,21,22.51c1.22,1.16,2.8,1.93,5.52,3.75.17-3.22.38-4.93.33-6.64q-.5-22.85-1.07-45.7c0-.88-.08-1.76-.17-2.63-.2-1.78-1.15-2.53-2.94-2-10.18,2.74-20.35,5.46-30.52,8.24-2,.55-2.72,1.85-2,4Zm.3-190.49h0A117.39,117.39,0,0,0,345.16,385c-.55,6.7-.33,13.47-.26,20.22a28.75,28.75,0,0,0,1,6.95c4.49,17.76,13.12,33.15,26.56,45.73a28.87,28.87,0,0,0,2.69,2.25,2.14,2.14,0,0,0,3.3-1.53,25.45,25.45,0,0,0,.43-3.48c.21-7,.52-14.06.56-21.09.06-12.33.32-24.63,2.44-36.82a13.72,13.72,0,0,0-.45-6,8.36,8.36,0,0,1,8.87-10.72,59,59,0,0,1,9.47,1.87c2,.45,3.88,1.13,6.25,1.84,3.55-10.47,7.43-20.53,13.86-29.39s15.84-13.38,25.21-18.2c-1.36-2.88-3.89-3.18-5.92-4.06-10.25-4.37-20.91-7.57-31.59-10.73-7-2.06-14.22-3.68-20.52-7.63-1.83-1.15-3.22-.48-4.8.48A67.14,67.14,0,0,0,356,343.52Zm36.46,87h0c0,1.41.2,2.82.44,5.85a109.19,109.19,0,0,0,15.69-17.3c1.6-2.18,2.71-4.54,2.2-7.33-.07-.41-.65-.75-1-1.11a7.38,7.38,0,0,0-1.1,1.14c-1,1.62-2,.95-2.35-.23a32.54,32.54,0,0,1-1.2-6.86c-.17-3-1.44-5-4.41-5.71-.28-.07-.54-.24-.82-.33-7.88-2.76-9.52-1.68-8.59,6.49a213.21,213.21,0,0,1,1.14,25.39ZM133.93,351.73h0c2.29-12.07,4.4-24.17,6.77-36.2,2-10,4.26-20,6.37-30,.6-2.87.28-3.42-2.68-4.42-7.73-2.64-15.76-4.45-23.1-8.21-1.87-1-3.31-.17-4.54,1.37a67.72,67.72,0,0,0-10.53,18.13c-4.84,12.7-6.83,25.95-7.59,39.43a59.29,59.29,0,0,0,1,11.36,5.63,5.63,0,0,0,4.3,4.91,213.55,213.55,0,0,0,25.33,7c3.19.61,4,0,4.63-3.39ZM83.26,338.84h0c1.7.9,3.35,2.57,5.84,1.53.6-26.2,5.47-51.12,24.1-71.86-2.82-2.32-5.34-4.24-7.68-6.36C86.6,244.92,76.79,223.85,79.1,198a92.76,92.76,0,0,1,6.69-26.35,39,39,0,0,0,2.54-10.2c.28-2.47-.82-3.84-3.31-4.29-5.08-.94-10,.26-14.69,1.8a42.19,42.19,0,0,0-9.45,4.61c-21,13.53-35.21,32.54-43.94,55.7-4.9,13-5.05,26.48-2,39.85a100.05,100.05,0,0,0,27,48.62A167.66,167.66,0,0,0,83.26,338.84Z"/>
          </g>
        </g>
      </g>
    </g>
  </g>
</svg>
